<svg width="93" height="88" viewBox="0 0 93 88" fill="none" xmlns="http://www.w3.org/2000/svg">
<g clip-path="url(#clip0_76_336)">
<path d="M48.161 88C72.1766 88 91.6451 68.5212 91.6451 44.4929C91.6451 20.4647 72.1766 0.985901 48.161 0.985901C24.1454 0.985901 4.67688 20.4647 4.67688 44.4929C4.67688 68.5212 24.1454 88 48.161 88Z" fill="#4C4A8F"/>
<path d="M47.1943 36.1164C46.9106 41.7518 46.6941 47.3872 46.5523 52.3802C43.9133 53.6649 39.7814 54.0906 39.9942 51.525C40.0651 50.0275 40.5653 44.1083 40.9908 36.404C37.4262 36.6169 33.7907 36.9044 30.5844 37.1883C24.4519 49.2433 17.681 57.8027 9.76806 57.8027C6.48716 57.8027 0 56.0923 0 48.1714C0 41.8937 5.13224 38.9696 7.41283 41.8228C4.41933 47.3162 6.48716 54.3035 11.6194 54.3035C16.7516 54.3035 21.6002 47.3125 26.2323 37.614C23.3097 37.8978 20.8836 38.1144 19.7451 38.1144C16.5389 38.1144 17.3227 34.406 18.0356 33.0504C21.813 33.0504 25.1648 33.0504 28.371 33.1214C32.7195 23.1353 36.7842 11.2222 40.2069 1.09421C46.6941 -1.47513 49.333 0.881343 49.1912 3.94738C48.8328 10.7218 47.9781 21.9216 47.3361 33.2633H49.5458C53.0394 33.2633 52.5393 34.0475 51.8263 36.1164H47.1943ZM32.5104 33.1923C35.3621 33.1923 38.1428 33.1923 41.1363 33.2633C41.4909 26.1304 41.9202 17.8584 42.062 10.367C38.9976 18.2842 35.8585 26.1304 32.5104 33.1923Z" fill="white"/>
<path d="M91.6451 29.6894C92.358 29.2599 92.7873 29.6894 93 30.6865C91.3614 34.3239 86.8712 38.1032 82.3063 38.8875C76.9576 74.1226 69.2611 87.9589 62.7739 87.9589C54.9318 87.9589 52.7931 63.0647 58.7092 37.9576C59.4221 35.3173 58.851 34.9625 56.4995 35.2463C55.2155 35.3882 49.3703 36.531 46.7314 37.0277C44.0925 37.5281 43.3087 35.3882 45.0219 32.4641C49.6578 32.1056 56.7123 31.9637 60.4933 31.9637C66.4803 31.9637 67.8352 33.5322 65.9839 39.8808C59.284 63.2775 62.9195 83.8883 64.8417 83.8883C68.048 83.8883 75.6773 65.9141 76.1775 37.8119C76.1065 37.8119 76.1065 37.741 76.1065 37.741C73.184 35.814 72.8256 28.3972 78.1034 27.8968C82.8102 35.0297 89.9356 30.679 91.6488 29.6782L91.6451 29.6894Z" fill="#F9F9F9"/>
</g>
<defs>
<clipPath id="clip0_76_336">
<rect width="93" height="88" fill="white"/>
</clipPath>
</defs>
</svg>
